<svg width="25" height="25" viewBox="0 0 25 25" fill="none" xmlns="http://www.w3.org/2000/svg">
<path fill-rule="evenodd" clip-rule="evenodd" d="M11 25C8.8244 25 6.69764 24.3549 4.8887 23.1462C3.07976 21.9375 1.66989 20.2195 0.837325 18.2095C0.00476092 16.1995 -0.213069 13.9878 0.211369 11.854C0.635806 9.72022 1.68343 7.76021 3.22181 6.22183C4.76019 4.68345 6.72023 3.6358 8.85402 3.21137C10.9878 2.78693 13.1995 3.00477 15.2095 3.83733C17.2195 4.66989 18.9375 6.0798 20.1462 7.88874C21.3549 9.69768 22 11.8244 22 14C22 16.9174 20.8411 19.7153 18.7782 21.7782C16.7153 23.8411 13.9174 25 11 25ZM11 4.83334C9.187 4.83334 7.4147 5.37095 5.90725 6.3782C4.3998 7.38545 3.22492 8.81708 2.53112 10.4921C1.83732 12.1671 1.65576 14.0102 2.00945 15.7883C2.36315 17.5665 3.23622 19.1998 4.5182 20.4818C5.80018 21.7638 7.43348 22.6368 9.21164 22.9905C10.9898 23.3442 12.8329 23.1627 14.5079 22.4689C16.1829 21.7751 17.6146 20.6002 18.6218 19.0927C19.629 17.5853 20.1667 15.813 20.1667 14C20.1667 11.5689 19.2009 9.23728 17.4818 7.51819C15.7627 5.79911 13.4311 4.83334 11 4.83334ZM10.9266 17.9719C10.8941 18.1078 10.8243 18.232 10.725 18.3303C10.6395 18.4164 10.5359 18.4823 10.4218 18.5234C10.3076 18.5645 10.1857 18.5796 10.065 18.5678C9.87439 18.5811 9.68501 18.5287 9.52826 18.4195C9.37151 18.3103 9.25683 18.1507 9.20331 17.9673L6.6183 15.3842C6.47876 15.2269 6.40456 15.0223 6.41079 14.8122C6.41701 14.602 6.50321 14.4022 6.65181 14.2535C6.80041 14.1048 7.00021 14.0184 7.21035 14.012C7.42049 14.0056 7.62512 14.0797 7.78248 14.2191L9.78081 16.2211L13.8692 8.973C13.9279 8.86559 14.0075 8.77103 14.1033 8.69488C14.1992 8.61874 14.3093 8.56256 14.4272 8.52967C14.5451 8.49677 14.6684 8.48783 14.7898 8.50336C14.9112 8.51889 15.0283 8.55858 15.1342 8.62009C15.347 8.75141 15.5004 8.96037 15.562 9.20277C15.6236 9.44516 15.5885 9.70201 15.4642 9.919L10.9266 17.9719Z" fill="#888888" fill-opacity="0.8"/>
<circle cx="21" cy="4" r="3.5" fill="#D0312D" stroke="white"/>
</svg>
