<svg width="24" height="23" viewBox="0 0 24 23" fill="none" xmlns="http://www.w3.org/2000/svg">
<path d="M9 9V13M17 11.165C17 17.7333 12.0319 20.6781 9.9258 21.6314L9.9231 21.6325C9.7016 21.7328 9.5906 21.7831 9.3389 21.8263C9.1795 21.8537 8.8215 21.8537 8.6621 21.8263C8.4094 21.7829 8.2972 21.7325 8.074 21.6314C5.9678 20.6781 1 17.7333 1 11.165V7.2002C1 6.08009 1 5.51962 1.21799 5.0918C1.40973 4.71547 1.71547 4.40973 2.0918 4.21799C2.51962 4 3.08009 4 4.2002 4H13.8002C14.9203 4 15.4796 4 15.9074 4.21799C16.2837 4.40973 16.5905 4.71547 16.7822 5.0918C17 5.5192 17 6.07899 17 7.19691V11.165ZM9.0498 16V16.1L8.9502 16.1002V16H9.0498Z" stroke="#888888" stroke-opacity="0.8" stroke-width="2" stroke-linecap="round" stroke-linejoin="round"/>
<circle cx="20" cy="4" r="3.5" fill="#D0312D" stroke="white"/>
</svg>
