<svg width="22" height="22" viewBox="0 0 22 22" fill="none" xmlns="http://www.w3.org/2000/svg">
<path d="M6 2.33782C7.47087 1.48697 9.1786 1 11 1C16.5228 1 21 5.47715 21 11C21 16.5228 16.5228 21 11 21C5.47715 21 1 16.5228 1 11C1 9.1786 1.48697 7.47087 2.33782 6" stroke="#121212" stroke-width="2" stroke-linecap="round"/>
<path d="M9.8613 8.36335C10.3679 7.45445 10.6213 7 11 7C11.3787 7 11.6321 7.45445 12.1387 8.36335L12.2698 8.59849C12.4138 8.85677 12.4858 8.98591 12.598 9.0711C12.7103 9.1563 12.8501 9.188 13.1296 9.2512L13.3842 9.3088C14.3681 9.5314 14.86 9.6427 14.977 10.0191C15.0941 10.3955 14.7587 10.7876 14.088 11.572L13.9144 11.7749C13.7238 11.9978 13.6285 12.1092 13.5857 12.2471C13.5428 12.385 13.5572 12.5336 13.586 12.831L13.6122 13.1018C13.7136 14.1482 13.7644 14.6715 13.4579 14.9041C13.1515 15.1367 12.6909 14.9246 11.7697 14.5005L11.5314 14.3907C11.2696 14.2702 11.1387 14.2099 11 14.2099C10.8613 14.2099 10.7304 14.2702 10.4686 14.3907L10.2303 14.5005C9.3091 14.9246 8.84847 15.1367 8.54206 14.9041C8.23565 14.6715 8.28635 14.1482 8.38776 13.1018L8.41399 12.831C8.44281 12.5336 8.45722 12.385 8.41435 12.2471C8.37147 12.1092 8.27617 11.9978 8.08557 11.7749L7.91204 11.572C7.2413 10.7876 6.90593 10.3955 7.02297 10.0191C7.14001 9.6427 7.63194 9.5314 8.61581 9.3088L8.87035 9.2512C9.1499 9.188 9.2897 9.1563 9.402 9.0711C9.5142 8.98591 9.5862 8.85677 9.7302 8.59849L9.8613 8.36335Z" stroke="#121212" stroke-width="2"/>
</svg>
