<svg width="24" height="25" viewBox="0 0 24 25" fill="none" xmlns="http://www.w3.org/2000/svg">
<path d="M9.8613 11.3633C10.3679 10.4544 10.6213 10 11 10C11.3787 10 11.6321 10.4544 12.1387 11.3633L12.2698 11.5985C12.4138 11.8568 12.4858 11.9859 12.598 12.0711C12.7103 12.1563 12.8501 12.188 13.1296 12.2512L13.3842 12.3088C14.3681 12.5314 14.86 12.6427 14.977 13.0191C15.0941 13.3955 14.7587 13.7876 14.088 14.572L13.9144 14.7749C13.7238 14.9978 13.6285 15.1092 13.5857 15.2471C13.5428 15.385 13.5572 15.5336 13.586 15.831L13.6122 16.1018C13.7136 17.1482 13.7644 17.6715 13.4579 17.9041C13.1515 18.1367 12.6909 17.9246 11.7697 17.5005L11.5314 17.3907C11.2696 17.2702 11.1387 17.2099 11 17.2099C10.8613 17.2099 10.7304 17.2702 10.4686 17.3907L10.2303 17.5005C9.3091 17.9246 8.84847 18.1367 8.54206 17.9041C8.23565 17.6715 8.28635 17.1482 8.38776 16.1018L8.41399 15.831C8.44281 15.5336 8.45722 15.385 8.41435 15.2471C8.37147 15.1092 8.27617 14.9978 8.08557 14.7749L7.91204 14.572C7.2413 13.7876 6.90593 13.3955 7.02297 13.0191C7.14001 12.6427 7.63194 12.5314 8.61581 12.3088L8.87035 12.2512C9.1499 12.188 9.2897 12.1563 9.402 12.0711C9.5142 11.9859 9.5862 11.8568 9.7302 11.5985L9.8613 11.3633Z" stroke="#888888" stroke-opacity="0.8" stroke-width="2"/>
<path d="M6 5.33782C7.47087 4.48697 9.1786 4 11 4C16.5228 4 21 8.47715 21 14C21 19.5228 16.5228 24 11 24C5.47715 24 1 19.5228 1 14C1 12.1786 1.48697 10.4709 2.33782 9" stroke="#888888" stroke-opacity="0.8" stroke-width="2" stroke-linecap="round"/>
<circle cx="20" cy="4" r="3.5" fill="#D0312D" stroke="white"/>
</svg>
