<svg width="21" height="25" viewBox="0 0 21 25" fill="none" xmlns="http://www.w3.org/2000/svg">
<path d="M10.625 9.375V15C10.625 15.1658 10.5592 15.3247 10.4419 15.4419C10.3247 15.5592 10.1658 15.625 10 15.625C9.83424 15.625 9.67527 15.5592 9.55806 15.4419C9.44085 15.3247 9.375 15.1658 9.375 15V9.375C9.375 9.20924 9.44085 9.05027 9.55806 8.93306C9.67527 8.81585 9.83424 8.75 10 8.75C10.1658 8.75 10.3247 8.81585 10.4419 8.93306C10.5592 9.05027 10.625 9.20924 10.625 9.375ZM11.25 5.6875C11.261 5.52227 11.2059 5.35943 11.097 5.23475C10.988 5.11006 10.834 5.03373 10.6687 5.0225C10.4471 5.0075 10.2242 5 10 5C7.34875 5.00298 4.80694 6.0575 2.93222 7.93222C1.0575 9.80694 0.00297764 12.3487 0 15C0.00297764 17.6513 1.0575 20.1931 2.93222 22.0678C4.80694 23.9425 7.34875 24.997 10 25C10.2233 25 10.4458 24.9925 10.6675 24.9775C10.7494 24.9721 10.8295 24.9506 10.9031 24.9143C10.9767 24.8779 11.0424 24.8274 11.0965 24.7657C11.1506 24.7039 11.192 24.6321 11.2183 24.5544C11.2447 24.4766 11.2554 24.3944 11.25 24.3125C11.2369 24.1477 11.1599 23.9945 11.0354 23.8857C10.9109 23.7769 10.7488 23.721 10.5838 23.73C10.3913 23.7438 10.1975 23.75 10.0013 23.75C7.68142 23.7474 5.45736 22.8246 3.81699 21.1843C2.17662 19.5439 1.2539 17.3198 1.25125 15C1.2539 12.6802 2.17662 10.4561 3.81699 8.81574C5.45736 7.17537 7.68142 6.25265 10.0013 6.25C10.1975 6.25 10.3913 6.25 10.5838 6.27H10.6263C10.7847 6.27005 10.9372 6.20993 11.053 6.10179C11.1688 5.99365 11.2392 5.84557 11.25 5.6875ZM13.9075 22.8325C13.5664 23.0022 13.2149 23.15 12.855 23.275C12.6984 23.329 12.5697 23.4429 12.497 23.5917C12.4244 23.7405 12.4137 23.9121 12.4675 24.0688C12.5099 24.1918 12.5897 24.2985 12.6957 24.374C12.8017 24.4495 12.9286 24.4901 13.0587 24.49C13.128 24.4898 13.1968 24.4784 13.2625 24.4562C13.6737 24.3156 14.0753 24.1486 14.465 23.9562C14.5385 23.9196 14.604 23.8688 14.6579 23.8068C14.7117 23.7448 14.7528 23.6728 14.7788 23.5949C14.8048 23.517 14.8152 23.4348 14.8094 23.3528C14.8036 23.2709 14.7817 23.191 14.745 23.1175C14.7088 23.0436 14.6583 22.9776 14.5965 22.9232C14.5347 22.8688 14.4628 22.8272 14.3848 22.8007C14.3069 22.7743 14.2245 22.7634 14.1424 22.7689C14.0602 22.7743 13.98 22.796 13.9062 22.8325H13.9075ZM16.5775 9.22875C16.6361 9.2958 16.7083 9.34956 16.7894 9.38643C16.8705 9.42329 16.9585 9.44241 17.0475 9.4425C17.1993 9.44263 17.3459 9.38753 17.46 9.2875C17.5218 9.23336 17.5722 9.16757 17.6086 9.0939C17.6449 9.02023 17.6663 8.94013 17.6717 8.85817C17.677 8.77621 17.6661 8.694 17.6397 8.61624C17.6132 8.53848 17.5717 8.4667 17.5175 8.405C17.2302 8.07711 16.9216 7.76852 16.5937 7.48125C16.4694 7.37423 16.3079 7.32041 16.1442 7.3314C15.9805 7.34239 15.8277 7.41732 15.7187 7.54C15.6116 7.66421 15.5575 7.82558 15.5683 7.98928C15.5791 8.15298 15.6537 8.30588 15.7763 8.415C16.061 8.66828 16.3287 8.94012 16.5775 9.22875ZM12.8212 6.715C13.1827 6.83769 13.5355 6.98426 13.8775 7.15375C13.9635 7.19588 14.058 7.21769 14.1537 7.2175C14.2702 7.2175 14.3843 7.18496 14.4833 7.12356C14.5822 7.06216 14.662 6.97434 14.7137 6.87C14.7501 6.79638 14.7717 6.71632 14.7771 6.63438C14.7825 6.55244 14.7718 6.47023 14.7454 6.39245C14.7191 6.31467 14.6777 6.24285 14.6235 6.18108C14.5694 6.11932 14.5036 6.06883 14.43 6.0325C14.0396 5.83991 13.6371 5.6729 13.225 5.5325C13.1473 5.50594 13.0651 5.49496 12.9831 5.50019C12.9011 5.50542 12.821 5.52676 12.7473 5.56298C12.6736 5.5992 12.6077 5.64959 12.5535 5.71128C12.4993 5.77297 12.4577 5.84475 12.4312 5.9225C12.378 6.07931 12.3892 6.25085 12.4623 6.39944C12.5354 6.54803 12.6645 6.66153 12.8212 6.715ZM19.0875 17.3987C18.9305 17.346 18.759 17.3577 18.6107 17.4313C18.4623 17.5049 18.3492 17.6343 18.2963 17.7912C18.1741 18.1523 18.0288 18.5051 17.8612 18.8475C17.8249 18.9213 17.8035 19.0015 17.7983 19.0835C17.793 19.1656 17.804 19.2478 17.8306 19.3256C17.8572 19.4034 17.8989 19.4752 17.9532 19.5369C18.0076 19.5986 18.0736 19.6489 18.1475 19.685C18.2328 19.7263 18.3264 19.7477 18.4212 19.7475C18.5383 19.7478 18.653 19.7153 18.7525 19.6537C18.8519 19.592 18.932 19.5037 18.9838 19.3988C19.1762 19.007 19.3432 18.6032 19.4837 18.19C19.5098 18.112 19.5202 18.0297 19.5144 17.9477C19.5085 17.8657 19.4866 17.7857 19.4498 17.7122C19.413 17.6387 19.362 17.5732 19.2999 17.5194C19.2377 17.4656 19.1655 17.4246 19.0875 17.3987ZM16.5988 20.75C16.3483 21.0376 16.0794 21.3086 15.7938 21.5612C15.7323 21.6157 15.6823 21.6818 15.6464 21.7556C15.6105 21.8295 15.5896 21.9097 15.5847 21.9916C15.5798 22.0736 15.5911 22.1557 15.618 22.2333C15.6448 22.3108 15.6867 22.3824 15.7413 22.4437C15.7999 22.5098 15.8719 22.5627 15.9525 22.5989C16.0331 22.6351 16.1204 22.6538 16.2088 22.6538C16.3614 22.6543 16.5089 22.5982 16.6225 22.4962C16.9488 22.2085 17.2557 21.8995 17.5412 21.5712C17.5953 21.5094 17.6367 21.4375 17.6629 21.3596C17.6891 21.2818 17.6998 21.1995 17.6942 21.1176C17.6886 21.0356 17.667 20.9555 17.6304 20.882C17.5939 20.8084 17.5432 20.7427 17.4812 20.6887C17.4193 20.6348 17.3473 20.5935 17.2694 20.5674C17.1916 20.5412 17.1093 20.5307 17.0273 20.5364C16.9453 20.5421 16.8653 20.5639 16.7918 20.6005C16.7182 20.6372 16.6526 20.688 16.5988 20.75ZM19.9738 14.3313C19.9625 14.1665 19.8865 14.0129 19.7624 13.904C19.6383 13.7951 19.4761 13.7397 19.3112 13.75C19.146 13.7612 18.992 13.8376 18.883 13.9622C18.7741 14.0869 18.719 14.2498 18.73 14.415C18.7438 14.6063 18.75 14.8025 18.75 15C18.75 15.1975 18.75 15.375 18.7325 15.5525C18.7271 15.6344 18.7378 15.7166 18.7642 15.7944C18.7905 15.8721 18.8319 15.9439 18.886 16.0057C18.9401 16.0674 19.0058 16.1179 19.0794 16.1543C19.153 16.1906 19.2331 16.2121 19.315 16.2175H19.3563C19.5151 16.2178 19.6681 16.1577 19.7842 16.0493C19.9003 15.9408 19.9708 15.7923 19.9813 15.6337C19.9938 15.425 20 15.2125 20 15C20 14.7875 19.9925 14.5487 19.9775 14.3275L19.9738 14.3313ZM18.2812 12.1812C18.3233 12.305 18.4031 12.4124 18.5094 12.4884C18.6157 12.5644 18.7431 12.6052 18.8737 12.605C18.9422 12.6047 19.0102 12.5933 19.075 12.5713C19.1528 12.5448 19.2245 12.5032 19.2862 12.449C19.3479 12.3948 19.3983 12.3289 19.4345 12.2552C19.4707 12.1815 19.4921 12.1014 19.4973 12.0194C19.5025 11.9374 19.4916 11.8552 19.465 11.7775C19.3246 11.3654 19.1575 10.9629 18.965 10.5725C18.8914 10.424 18.7618 10.3108 18.6048 10.2578C18.4477 10.2048 18.276 10.2164 18.1275 10.29C17.9793 10.3636 17.8663 10.493 17.8134 10.6497C17.7604 10.8065 17.7718 10.9779 17.845 11.1263C18.0146 11.4666 18.1615 11.8178 18.285 12.1775L18.2812 12.1812Z" fill="black"/>
<circle cx="17" cy="4" r="3.5" fill="#D0312D" stroke="white"/>
</svg>
